# xmcd
#
# Track frame offsets:
#	150
#	3887
#	17920
#	39210
#	58350
#	80242
#	97565
#	108960
#	126720
#	142020
#	160607
#	162227
#	179937
#	195742
#	197862
#	215550
#	237192
#	241895
#	261355
#	278017
#	285117
#	301962
#	321894
#
# Disc length: 4533 seconds
#
# Revision: 3
# Processed by: cddbd v1.5.1PL0 Copyright (c) Steve Scherf et al.
# Submitted via: dBpowerAMP V4.0
#
DISCID=4911b317
DTITLE=Outhere Brothers, The - 1 Polish 2 Biscuits and a Fish Sandwich
DYEAR=1995
DGENRE=Electronic
TTITLE0=I Miss You
TTITLE1=I Wanna
TTITLE2=Don't Stop Wiggle Wiggle
TTITLE3=Boom Boom Boom
TTITLE4=La La La Hey Hey
TTITLE5=On My Mind
TTITLE6=OHB Theme Song
TTITLE7=Let me be the One
TTITLE8=Les be in Luv
TTITLE9=Bring Dat Ass Over Here
TTITLE10=What Up?
TTITLE11=I Want My Shit Back
TTITLE12=Phat Phat Phat
TTITLE13=I Wanna P
TTITLE14=Golden Shower
TTITLE15=Pass the Toilet Paper
TTITLE16=The Halle Jones Show
TTITLE17=I'll Lick You Baby
TTITLE18=F.Y.I.T.A
TTITLE19=Chi Town People
TTITLE20=Phat Phat Phat [Where Dey At Mix]
TTITLE21=Players Get Lonely
TTITLE22=Boom Boom Boom [Smooth Mix]
EXTD=
EXTT0=
EXTT1=
EXTT2=
EXTT3=
EXTT4=
EXTT5=
EXTT6=
EXTT7=
EXTT8=
EXTT9=
EXTT10=
EXTT11=
EXTT12=
EXTT13=
EXTT14=
EXTT15=
EXTT16=
EXTT17=
EXTT18=
EXTT19=
EXTT20=
EXTT21=
EXTT22=
PLAYORDER=
